<svg 
          width="86.19999694824219" 
          height="78.0999984741211" fill="none" 
          xmlns="http://www.w3.org/2000/svg">
          <path d="M 0 78.0999984741211 L 0 0 L 46.20000076293945 0 L 46.20000076293945 16 L 86.19999694824219 16 L 86.19999694824219 78.0999984741211 L 0 78.0999984741211 Z M 11.100000381469727 67 L 19.100000381469727 67 L 19.100000381469727 59 L 11.100000381469727 59 L 11.100000381469727 67 Z M 11.100000381469727 51 L 19.100000381469727 51 L 19.100000381469727 43 L 11.100000381469727 43 L 11.100000381469727 51 Z M 11.100000381469727 35 L 19.100000381469727 35 L 19.100000381469727 27 L 11.100000381469727 27 L 11.100000381469727 35 Z M 11.100000381469727 19 L 19.100000381469727 19 L 19.100000381469727 11 L 11.100000381469727 11 L 11.100000381469727 19 Z M 27.100000381469727 67 L 35.099998474121094 67 L 35.099998474121094 59 L 27.100000381469727 59 L 27.100000381469727 67 Z M 27.100000381469727 51 L 35.099998474121094 51 L 35.099998474121094 43 L 27.100000381469727 43 L 27.100000381469727 51 Z M 27.100000381469727 35 L 35.099998474121094 35 L 35.099998474121094 27 L 27.100000381469727 27 L 27.100000381469727 35 Z M 27.100000381469727 19 L 35.099998474121094 19 L 35.099998474121094 11 L 27.100000381469727 11 L 27.100000381469727 19 Z M 43.099998474121094 67 L 75.0999984741211 67 L 75.0999984741211 27 L 43.099998474121094 27 L 43.099998474121094 35 L 51.099998474121094 35 L 51.099998474121094 43 L 43.099998474121094 43 L 43.099998474121094 51 L 51.099998474121094 51 L 51.099998474121094 59 L 43.099998474121094 59 L 43.099998474121094 67 Z M 59.099998474121094 43 L 59.099998474121094 35 L 67.0999984741211 35 L 67.0999984741211 43 L 59.099998474121094 43 Z M 59.099998474121094 59 L 59.099998474121094 51 L 67.0999984741211 51 L 67.0999984741211 59 L 59.099998474121094 59 Z" fill="rgb(63.000000044703484,107.00000122189522,0)"/>
        </svg>